<svg width="140" height="38" viewBox="0 0 140 38" fill="none" xmlns="http://www.w3.org/2000/svg">
<path fill-rule="evenodd" clip-rule="evenodd" d="M40.2187 30.2362C34.0473 30.2362 29.0445 25.2333 29.0445 19.0619C29.0445 12.8906 34.0473 7.8877 40.2187 7.8877C42.8236 7.8877 45.2203 8.77901 47.1204 10.2733L57.9904 23.0058C58.9532 24.2161 60.3525 24.9777 61.9099 24.9777C64.814 24.9777 67.1683 22.3291 67.1683 19.0619C67.1683 15.7947 64.814 13.1462 61.9099 13.1462C59.731 13.1462 57.8617 14.637 57.0639 16.7614L51.5815 10.2733V0H57.3087V8.87595C58.7119 8.24111 60.2696 7.8877 61.9099 7.8877C68.0812 7.8877 73.0841 12.8906 73.0841 19.0619C73.0841 25.2333 68.0812 30.2362 61.9099 30.2362C58.8311 30.2362 56.0432 28.9911 54.0222 26.977L46.4284 17.9272L39.442 24.9136C39.6955 24.9558 39.9548 24.9777 40.2187 24.9777C42.3975 24.9777 44.4912 23.3344 45.4772 21.6912L49.0074 25.9637C46.9614 28.5653 43.7852 30.2362 40.2187 30.2362ZM35.1906 20.7989L42.3415 13.648C41.6922 13.3253 40.9741 13.1462 40.2187 13.1462C37.3145 13.1462 34.9602 15.7947 34.9602 19.0619C34.9602 19.6664 35.0408 20.2497 35.1906 20.7989Z" fill="white"/>
<path d="M26.7922 22.2574C26.7922 23.3589 26.5824 24.4015 26.1627 25.3851C25.7431 26.3555 25.166 27.2014 24.4316 27.9227C23.7104 28.6439 22.8579 29.2144 21.8744 29.6341C20.9039 30.0537 19.8614 30.2635 18.7467 30.2635C17.75 30.2635 16.7927 30.0931 15.8747 29.7521C14.9567 29.398 14.1239 28.8865 13.3764 28.2177C12.642 28.8865 11.8158 29.398 10.8978 29.7521C9.99297 30.0931 9.03564 30.2635 8.02585 30.2635C6.91115 30.2635 5.86858 30.0537 4.89813 29.6341C3.92768 29.2144 3.07527 28.6439 2.34087 27.9227C1.6196 27.2014 1.04913 26.3555 0.629479 25.3851C0.209826 24.4015 0 23.3589 0 22.2574V8.84159H5.37024V22.2574C5.37024 22.6245 5.43581 22.9721 5.56695 23.2999C5.71121 23.6147 5.90136 23.8966 6.13742 24.1458C6.38659 24.3818 6.66854 24.572 6.98328 24.7163C7.31113 24.8474 7.65866 24.913 8.02585 24.913C8.39305 24.913 8.74057 24.8474 9.06843 24.7163C9.39628 24.572 9.68479 24.3818 9.93396 24.1458C10.1831 23.8966 10.3733 23.6147 10.5044 23.2999C10.6487 22.9721 10.7208 22.6245 10.7208 22.2574V8.84159H16.0714V22.2574C16.0714 22.6245 16.1435 22.9721 16.2878 23.2999C16.432 23.6147 16.6222 23.8966 16.8582 24.1458C17.1074 24.3818 17.3893 24.572 17.7041 24.7163C18.0319 24.8474 18.3795 24.913 18.7467 24.913C19.1139 24.913 19.4614 24.8474 19.7892 24.7163C20.1171 24.572 20.399 24.3818 20.6351 24.1458C20.8843 23.8966 21.081 23.6147 21.2252 23.2999C21.3695 22.9721 21.4416 22.6245 21.4416 22.2574V8.84159H26.7922V22.2574Z" fill="white"/>
<path fill-rule="evenodd" clip-rule="evenodd" d="M96.2512 29.8701H94.9529L92.8678 26.9784C92.3563 27.4374 91.8121 27.8702 91.2351 28.2767C90.6712 28.6702 90.0745 29.0177 89.445 29.3193C88.8155 29.6078 88.1664 29.8373 87.4975 30.0078C86.8418 30.1783 86.173 30.2635 85.4911 30.2635C84.0092 30.2635 82.6125 30.0144 81.3011 29.516C80.0028 29.0177 78.8619 28.2964 77.8783 27.3522C76.9079 26.3949 76.1407 25.2277 75.5768 23.8507C75.0129 22.4737 74.7309 20.9066 74.7309 19.1493C74.7309 17.51 75.0129 16.0085 75.5768 14.6446C76.1407 13.2676 76.9079 12.0873 77.8783 11.1038C78.8619 10.1202 80.0028 9.3596 81.3011 8.82192C82.6125 8.27112 84.0092 7.99573 85.4911 7.99573C86.173 7.99573 86.8484 8.08097 87.5172 8.25145C88.186 8.42194 88.8352 8.65799 89.4647 8.95961C90.0941 9.26124 90.6908 9.61532 91.2547 10.0219C91.8318 10.4284 92.3694 10.8677 92.8678 11.3398L94.9529 8.84159H96.2512V29.8701ZM90.8416 19.1493C90.8416 18.4149 90.6974 17.7067 90.4089 17.0248C90.1335 16.3298 89.7532 15.72 89.2679 15.1954C88.7827 14.6577 88.2122 14.2315 87.5565 13.9168C86.9139 13.5889 86.2255 13.425 85.4911 13.425C84.7567 13.425 84.0616 13.5496 83.4059 13.7987C82.7633 14.0479 82.1994 14.4151 81.7142 14.9003C81.2421 15.3855 80.8683 15.9888 80.5929 16.7101C80.3175 17.4182 80.1798 18.2313 80.1798 19.1493C80.1798 20.0673 80.3175 20.8869 80.5929 21.6082C80.8683 22.3164 81.2421 22.9131 81.7142 23.3983C82.1994 23.8835 82.7633 24.2507 83.4059 24.4999C84.0616 24.749 84.7567 24.8736 85.4911 24.8736C86.2255 24.8736 86.9139 24.7163 87.5565 24.4015C88.2122 24.0737 88.7827 23.6474 89.2679 23.1229C89.7532 22.5852 90.1335 21.9754 90.4089 21.2935C90.6974 20.5984 90.8416 19.8837 90.8416 19.1493Z" fill="white"/>
<path d="M118.775 12.9922L114.841 16.9461C114.644 16.3953 114.375 15.9036 114.034 15.4708C113.693 15.0249 113.306 14.6512 112.873 14.3495C112.454 14.0479 111.995 13.8184 111.496 13.661C110.998 13.5037 110.487 13.425 109.962 13.425C109.228 13.425 108.533 13.5758 107.877 13.8774C107.234 14.179 106.67 14.6053 106.185 15.156C105.713 15.6937 105.339 16.3363 105.064 17.0838C104.789 17.8313 104.651 18.6575 104.651 19.5624C104.651 20.2968 104.789 20.9853 105.064 21.6279C105.339 22.2705 105.713 22.8344 106.185 23.3196C106.67 23.8048 107.234 24.1851 107.877 24.4605C108.533 24.7359 109.228 24.8736 109.962 24.8736C110.487 24.8736 110.992 24.8015 111.477 24.6572C111.962 24.513 112.414 24.3097 112.834 24.0474C113.267 23.772 113.647 23.4442 113.975 23.0639C114.316 22.6704 114.591 22.2377 114.801 21.7656L118.735 25.7195C118.237 26.4276 117.66 27.0637 117.004 27.6276C116.362 28.1915 115.66 28.6702 114.9 29.0636C114.152 29.457 113.359 29.7521 112.519 29.9488C111.693 30.1586 110.841 30.2635 109.962 30.2635C108.48 30.2635 107.084 29.9881 105.772 29.4373C104.474 28.8734 103.333 28.1063 102.349 27.1358C101.379 26.1654 100.612 25.031 100.048 23.7327C99.4839 22.4344 99.2019 21.0443 99.2019 19.5624C99.2019 17.9494 99.4839 16.4412 100.048 15.038C100.612 13.6348 101.379 12.4152 102.349 11.3792C103.333 10.33 104.474 9.50385 105.772 8.9006C107.084 8.29735 108.48 7.99573 109.962 7.99573C110.841 7.99573 111.7 8.1072 112.539 8.33014C113.391 8.55308 114.198 8.88093 114.959 9.3137C115.732 9.73335 116.44 10.2514 117.083 10.8677C117.739 11.4841 118.303 12.1923 118.775 12.9922Z" fill="white"/>
<path d="M126.486 37.896V32.4864L129.476 32.5257C130 32.5257 130.505 32.4405 130.991 32.27C131.476 32.0995 131.922 31.8635 132.328 31.5618C132.748 31.2602 133.115 30.8996 133.43 30.4799C133.745 30.0734 134 29.6275 134.197 29.1423C133.607 29.3914 133.004 29.6406 132.387 29.8898C131.784 30.1389 131.174 30.2635 130.558 30.2635C129.26 30.2635 128.04 30.034 126.899 29.575C125.758 29.116 124.755 28.4669 123.889 27.6276C123.037 26.7752 122.361 25.7457 121.863 24.5392C121.378 23.3196 121.135 21.9557 121.135 20.4476V8.80225H126.486V20.4476C126.486 21.1951 126.591 21.8508 126.801 22.4147C127.024 22.9655 127.319 23.4311 127.686 23.8114C128.053 24.1786 128.479 24.454 128.964 24.6376C129.463 24.8212 129.994 24.913 130.558 24.913C131.109 24.913 131.627 24.7884 132.112 24.5392C132.61 24.2769 133.043 23.936 133.41 23.5163C133.777 23.0967 134.066 22.6245 134.276 22.1C134.486 21.5623 134.59 21.0115 134.59 20.4476V8.80225H140V27.2145C139.987 28.6964 139.698 30.0865 139.134 31.3848C138.571 32.6831 137.797 33.8175 136.813 34.7879C135.843 35.7584 134.708 36.5255 133.41 37.0894C132.112 37.6534 130.722 37.9353 129.24 37.9353L126.486 37.896Z" fill="white"/>
</svg>
